<svg width="60" height="59" viewBox="0 0 60 59" fill="none" xmlns="http://www.w3.org/2000/svg">
<path d="M60.0005 46.464C59.8112 46.8881 59.6776 47.3505 59.4208 47.7291C58.0029 49.8206 55.0954 49.7428 53.7701 47.5662C52.8072 45.984 51.9075 44.3637 50.9814 42.7595C50.2989 41.5779 49.6091 40.3994 48.9413 39.2076C48.7828 38.9243 48.6287 38.8583 48.2955 38.9155C42.5597 39.9003 37.4418 37.0002 35.3385 31.5902C33.1737 26.0246 36.1194 19.279 41.682 17.0642C47.8684 14.5999 54.5494 17.4634 56.8743 23.7071C58.3537 27.6816 57.6478 31.4184 55.091 34.8001C54.9149 35.0319 54.7241 35.2536 54.5215 35.5002C54.6771 35.7805 54.8224 36.052 54.9765 36.3191C56.2725 38.5662 57.5847 40.8045 58.8601 43.0618C59.2872 43.8177 59.6218 44.6249 59.999 45.4087C60.0005 45.7609 60.0005 46.1117 60.0005 46.464ZM46.1057 17.9302C40.6913 17.9316 36.3968 22.2951 36.407 27.7859C36.4158 33.1063 40.7999 37.3759 46.251 37.3744C51.5538 37.3729 55.8278 32.986 55.8483 27.5246C55.866 22.323 51.4026 17.9287 46.1057 17.9302ZM50.4706 38.346C50.8655 39.0315 51.2529 39.7051 51.6419 40.3788C52.8205 42.4219 53.9961 44.4664 55.1791 46.5065C55.6267 47.2785 56.2505 47.6073 56.9462 47.4591C58.1027 47.214 58.5621 46.0603 57.9208 44.939C56.4692 42.4013 55.0015 39.8725 53.5396 37.3407C53.4237 37.1411 53.3019 36.9444 53.1962 36.7683C52.2891 37.2952 51.4144 37.8001 50.4706 38.346Z" fill="white"/>
<path d="M33.0272 49.1074C33.1622 49.3833 33.2518 49.5712 33.3472 49.7561C34.5463 52.1001 35.7469 54.444 36.9445 56.7879C37.0414 56.9787 37.2146 57.196 37.1838 57.3706C37.1236 57.7009 37.0223 58.1015 36.7904 58.3056C36.4793 58.5786 36.0433 58.5096 35.7425 58.172C35.5898 58.0003 35.4871 57.7816 35.3814 57.5746C34.0267 54.9386 32.6647 52.3041 31.332 49.6563C31.1294 49.2542 30.9152 49.0898 30.4484 49.0942C27.5967 49.1177 24.7449 49.1147 21.8946 49.0971C21.466 49.0942 21.2429 49.2263 21.0463 49.6167C19.7062 52.2821 18.3354 54.9342 16.9734 57.5878C16.875 57.7786 16.7796 57.9753 16.6461 58.1397C16.3584 58.4934 15.9709 58.536 15.5893 58.3437C15.2004 58.147 15.0374 57.7933 15.1563 57.3604C15.2121 57.1563 15.3207 56.9655 15.4191 56.7747C16.6167 54.4293 17.8173 52.0869 19.0149 49.7429C19.1015 49.5727 19.1808 49.398 19.3188 49.1089C19.034 49.1089 18.8329 49.1089 18.6333 49.1089C16.0942 49.1089 13.5551 49.1103 11.0159 49.1089C9.27815 49.1074 8.55309 48.3838 8.55162 46.6607C8.55162 46.194 8.55162 45.7273 8.55162 45.1739C8.31532 45.1739 8.10985 45.1739 7.90437 45.1739C6.18568 45.1739 4.46698 45.1783 2.74829 45.1725C1.0296 45.1666 0.00366928 44.1539 0.00220157 42.4469C-0.000733856 30.513 -0.000733856 18.5805 0.00220157 6.6465C0.00220157 4.97037 1.02813 3.94737 2.70573 3.93563C3.95622 3.92536 5.20525 3.92389 6.45574 3.93857C7.16317 3.94737 7.61229 4.41411 7.47579 4.98358C7.3525 5.49874 6.98411 5.69542 6.47188 5.69248C5.26102 5.68661 4.05015 5.68808 2.83929 5.69248C1.98949 5.69542 1.75905 5.92291 1.75905 6.76538C1.75759 18.6201 1.75759 30.4763 1.75905 42.331C1.75905 43.2175 1.97774 43.4156 2.9435 43.4156C18.1196 43.4156 33.2943 43.4156 48.4705 43.4156C48.6847 43.4156 48.902 43.3995 49.1148 43.4274C49.5977 43.489 49.9059 43.7473 49.9323 44.2596C49.9573 44.7395 49.6358 45.1079 49.1207 45.1563C48.7523 45.1916 48.3795 45.171 48.0081 45.1725C46.6432 45.1739 45.2767 45.1725 43.8163 45.1725C43.8163 45.7331 43.8193 46.2703 43.8163 46.8075C43.8075 48.2972 43.0341 49.0957 41.5443 49.103C38.9465 49.1162 36.3486 49.1074 33.7522 49.1074C33.5409 49.1074 33.331 49.1074 33.0272 49.1074ZM42.0566 45.2106C31.423 45.2106 20.8863 45.2106 10.3598 45.2106C10.3378 45.284 10.3188 45.3207 10.3188 45.3559C10.3144 45.7463 10.3114 46.1368 10.3114 46.5272C10.3114 47.3462 10.3114 47.3476 11.1598 47.3476C21.1784 47.3476 31.197 47.3476 41.2141 47.3476C41.3506 47.3476 41.5164 47.3946 41.6177 47.3329C41.7865 47.2317 42.0228 47.0717 42.0375 46.919C42.0874 46.3643 42.0566 45.7992 42.0566 45.2106Z" fill="white"/>
<path d="M27.2978 23.0775C27.449 22.6577 27.1877 22.4361 26.7988 22.2306C26.0224 21.8226 25.2782 21.3529 24.4974 20.9522C24.3242 20.8642 24.0072 20.8789 23.8399 20.9816C22.6892 21.6949 21.5708 21.692 20.4289 20.9654C20.2763 20.8686 19.9798 20.8524 19.8213 20.9361C18.992 21.3705 18.1965 21.8666 17.3673 22.3011C17.0312 22.4772 16.971 22.6929 16.9842 23.0437C17.0414 24.6112 15.8893 25.941 14.3996 26.0687C12.7763 26.2081 11.4186 25.169 11.1926 23.5662C11.0238 22.373 11.4803 21.3999 12.471 20.7424C13.5087 20.0525 14.6197 20.0555 15.6633 20.735C15.9979 20.9522 16.2092 20.9728 16.5351 20.7746C17.3012 20.3094 18.085 19.8691 18.8731 19.442C19.1432 19.2952 19.2547 19.1411 19.2415 18.8094C19.1711 17.0408 20.4524 15.6655 22.1388 15.6611C23.8428 15.6553 25.0948 17.0349 25.0698 18.8563C25.0669 19.0369 25.2107 19.2967 25.3648 19.3906C26.197 19.8984 27.0468 20.3798 27.9098 20.8319C28.0625 20.9126 28.3516 20.8833 28.5057 20.7879C29.197 20.3563 29.9162 20.1626 30.7352 20.2859C30.9289 20.3153 31.2386 20.1993 31.3516 20.0437C32.8135 18.0418 34.2562 16.0266 35.6799 13.9968C35.79 13.8397 35.8061 13.5168 35.721 13.3407C35.0752 12.0153 35.3262 10.5814 36.4006 9.6714C37.4235 8.80399 38.9103 8.74528 39.9818 9.52757C41.0826 10.3319 41.4979 11.7878 40.9798 13.0251C40.4426 14.3094 39.151 14.9787 37.6775 14.7702C37.5175 14.7482 37.2621 14.8539 37.1667 14.986C35.6873 17.0232 34.2342 19.0794 32.7504 21.1137C32.5243 21.4234 32.6917 21.5995 32.812 21.8358C33.3712 22.9322 33.1877 24.237 32.3541 25.1572C31.5659 26.0261 30.2391 26.3241 29.1295 25.8823C28.0141 25.4376 27.2875 24.35 27.2978 23.0775ZM22.1564 17.4253C21.5444 17.418 20.9925 17.961 20.9852 18.5775C20.9778 19.1983 21.5106 19.7384 22.1344 19.7443C22.7582 19.7502 23.3027 19.2203 23.3086 18.5995C23.3159 17.986 22.7743 17.4341 22.1564 17.4253ZM38.2646 10.734C37.6422 10.7428 37.1256 11.2815 37.1329 11.9141C37.1388 12.5481 37.6672 13.0706 38.2939 13.0604C38.9192 13.0515 39.4431 12.5114 39.4343 11.8862C39.424 11.2624 38.8795 10.7252 38.2646 10.734ZM31.378 23.1876C31.3898 22.5814 30.8438 22.0193 30.2303 22.0061C29.6153 21.9928 29.0693 22.5286 29.0605 23.1523C29.0503 23.7923 29.5552 24.3133 30.1951 24.3221C30.8218 24.3309 31.3663 23.8084 31.378 23.1876ZM15.2376 23.1802C15.2435 22.5638 14.7034 22.0119 14.0899 22.0046C13.4822 21.9987 12.923 22.5476 12.9157 23.1597C12.9084 23.7791 13.4411 24.3148 14.0693 24.3206C14.7048 24.325 15.2318 23.8113 15.2376 23.1802Z" fill="white"/>
<path d="M21.312 3.93255C21.312 3.32639 21.3002 2.7848 21.3149 2.24322C21.3487 0.95163 22.1823 0.0592615 23.4783 0.0299072C25.2748 -0.009721 27.0727 -0.00972099 28.8677 0.0284395C30.1755 0.056326 31.0282 0.978049 31.0546 2.29018C31.0649 2.81416 31.0561 3.33813 31.0561 3.93255C31.3276 3.93255 31.5551 3.93255 31.7812 3.93255C37.6593 3.93255 43.539 3.93255 49.4172 3.93255C51.3927 3.93255 52.3629 4.90565 52.3643 6.88412C52.3658 9.36456 52.3673 11.845 52.3614 14.3254C52.3614 14.5764 52.3966 14.9008 52.2616 15.0607C52.0473 15.3132 51.72 15.5744 51.4103 15.6141C50.9891 15.6698 50.6985 15.3469 50.628 14.9052C50.5987 14.7144 50.6075 14.5162 50.6075 14.321C50.606 11.8406 50.6075 9.36015 50.606 6.87972C50.606 5.89195 50.3991 5.69087 49.3952 5.69087C36.5043 5.69087 23.6148 5.69087 10.7239 5.6894C10.4891 5.6894 10.2513 5.70408 10.0223 5.66739C9.58201 5.59694 9.31782 5.30927 9.28553 4.87629C9.25177 4.44038 9.4778 4.11895 9.90784 4.00007C10.1295 3.93842 10.3702 3.93402 10.6021 3.93402C13.9411 3.92962 17.2816 3.93109 20.6207 3.93109C20.8291 3.93255 21.039 3.93255 21.312 3.93255ZM29.2963 3.90026C29.2963 3.33373 29.2963 2.82737 29.2963 2.32101C29.2963 1.96288 29.1143 1.77502 28.7591 1.77502C27.0434 1.77208 25.3276 1.75887 23.6133 1.7941C23.4299 1.7985 23.1202 2.07149 23.0967 2.25056C23.0277 2.78187 23.0718 3.32932 23.0718 3.90026C25.1618 3.90026 27.1975 3.90026 29.2963 3.90026Z" fill="white"/>
<path d="M19.4738 33.105C19.4738 31.1911 19.4708 29.2772 19.4752 27.3647C19.4767 26.3931 19.7688 26.0981 20.7287 26.0937C21.7047 26.0893 22.6807 26.0849 23.6582 26.0952C24.4772 26.104 24.8104 26.4181 24.8118 27.2282C24.8206 31.1529 24.8206 35.0776 24.8118 39.0022C24.8104 39.7904 24.4801 40.1133 23.7066 40.1221C22.6719 40.1338 21.6372 40.1338 20.6024 40.1221C19.7981 40.1133 19.4811 39.7889 19.4782 38.9626C19.4694 37.0105 19.4738 35.057 19.4738 33.105ZM23.0197 38.3461C23.0197 34.8369 23.0197 31.376 23.0197 27.8975C22.4121 27.8975 21.8426 27.8975 21.2776 27.8975C21.2776 31.4053 21.2776 34.8662 21.2776 38.3461C21.8647 38.3461 22.4077 38.3461 23.0197 38.3461Z" fill="white"/>
<path d="M27.5439 35.3461C27.5439 34.1558 27.5395 32.9655 27.5454 31.7751C27.5498 30.9092 27.8404 30.6083 28.6975 30.5995C29.7117 30.5892 30.7274 30.5892 31.7416 30.5995C32.5767 30.6083 32.8658 30.893 32.8688 31.7355C32.8776 34.1543 32.879 36.5746 32.8688 38.9933C32.8658 39.8123 32.5459 40.1147 31.7225 40.1205C30.7083 40.1294 29.6941 40.1294 28.6785 40.1205C27.8668 40.1132 27.5512 39.7918 27.5468 38.9728C27.538 37.7649 27.5439 36.5555 27.5439 35.3461ZM31.0752 38.3446C31.0752 36.3368 31.0752 34.3803 31.0752 32.4063C30.4705 32.4063 29.904 32.4063 29.3433 32.4063C29.3433 34.4126 29.3433 36.3691 29.3433 38.3446C29.9245 38.3446 30.4632 38.3446 31.0752 38.3446Z" fill="white"/>
<path d="M16.7488 35.3296C16.7488 36.539 16.7547 37.7484 16.7473 38.9593C16.7415 39.7827 16.4259 40.1129 15.626 40.1217C14.5913 40.1335 13.558 40.1335 12.5233 40.1217C11.7439 40.1129 11.4166 39.8003 11.4137 39.0107C11.4019 36.5713 11.4005 34.132 11.4137 31.6941C11.4181 30.903 11.7307 30.6095 12.5306 30.6007C13.5639 30.5889 14.5986 30.5875 15.6333 30.6007C16.4464 30.6109 16.7415 30.9236 16.7473 31.7587C16.7547 32.949 16.7488 34.1393 16.7488 35.3296ZM13.2087 32.381C13.2087 34.402 13.2087 36.36 13.2087 38.3164C13.8222 38.3164 14.3931 38.3164 14.942 38.3164C14.942 36.3101 14.942 34.3536 14.942 32.381C14.3506 32.381 13.8104 32.381 13.2087 32.381Z" fill="white"/>
<path d="M37.3753 38.3665C38.2324 38.3665 39.025 38.3621 39.819 38.368C40.5265 38.3738 40.9036 38.6718 40.9139 39.2192C40.9257 39.7726 40.5441 40.1131 39.8572 40.1204C38.8063 40.1322 37.7539 40.1336 36.7016 40.1204C35.9501 40.1116 35.6302 39.7902 35.6214 39.0519C35.6111 38.2931 35.6096 37.5328 35.6228 36.774C35.6346 36.1723 35.9707 35.8039 36.48 35.7965C36.9893 35.7877 37.3459 36.1503 37.3709 36.7462C37.3929 37.2657 37.3753 37.7868 37.3753 38.3665Z" fill="white"/>
<path d="M52.7132 27.4158C52.6369 27.0357 52.4974 26.2945 52.3345 25.5577C52.2802 25.3126 52.1569 25.0822 52.085 24.84C51.9235 24.294 52.1099 23.8566 52.5664 23.6732C53.0141 23.4941 53.4676 23.6893 53.7083 24.2074C54.2763 25.4329 54.5552 26.7304 54.448 28.0748C54.1236 32.1419 51.539 35.0421 47.5527 35.8654C43.0439 36.7974 38.2738 33.2617 37.8452 28.6707C37.4402 24.3322 39.8267 20.7759 44.0273 19.6047C46.5693 18.8958 48.9353 19.4359 51.0781 20.9535C51.5214 21.2676 51.6095 21.7871 51.3365 22.1878C51.062 22.5915 50.5762 22.6986 50.0962 22.383C49.1202 21.7431 48.0972 21.2676 46.9201 21.1281C43.4328 20.7143 40.1965 23.0641 39.6432 26.5279C39.2234 29.1595 40.085 31.3801 42.2484 32.952C44.425 34.5342 46.8188 34.7162 49.2024 33.4437C51.4201 32.2593 52.5561 30.3175 52.7132 27.4158Z" fill="white"/>
</svg>
