<svg width="58" height="62" viewBox="0 0 58 62" fill="none" xmlns="http://www.w3.org/2000/svg">
<path d="M0.803874 61.4966C0.735961 61.4302 0.663519 61.3668 0.594096 61.3049C0.39941 61.1314 0.215289 60.9669 0.153412 60.7978C0.0628606 60.5503 0.0870087 60.3134 0.222836 60.1142C0.393375 59.8637 0.722377 59.7082 1.10269 59.6976C1.40302 59.6901 1.7275 59.6856 2.1214 59.6856C2.38702 59.6856 2.65566 59.6871 2.92731 59.6886C3.20802 59.6901 3.49326 59.6916 3.78453 59.6916H4.08637V58.6729C4.08637 57.707 4.09241 56.7411 4.09844 55.7752C4.11203 53.5628 4.12712 51.2763 4.06373 49.0261C4.03506 47.9908 4.33991 47.1125 4.94661 46.4892C5.52765 45.8915 6.35922 45.5625 7.28737 45.5625C7.35528 45.5625 7.4232 45.564 7.49262 45.5686C8.06762 45.5972 8.68488 45.6123 9.43193 45.6123C9.93751 45.6123 10.4446 45.6063 10.9517 45.6003C11.4558 45.5942 11.9598 45.5882 12.4639 45.5882H12.568C14.6809 45.5912 15.849 46.7593 15.8566 48.8752C15.8641 51.1481 15.8626 53.4601 15.8611 55.6953C15.8611 56.6551 15.8596 57.6134 15.8596 58.5733V59.6433H23.1641V53.2956C23.1641 48.4345 23.1626 43.5749 23.1671 38.7138C23.1686 37.0326 24.0183 35.8796 25.4973 35.5505C25.8097 35.4811 26.1523 35.4736 26.4496 35.4721C27.3446 35.4675 28.238 35.466 29.1329 35.466C29.9072 35.466 30.6814 35.4675 31.4556 35.4675H31.6292C33.7767 35.4706 34.9584 36.6462 34.9599 38.7772C34.9614 43.5629 34.9615 48.3485 34.9615 53.1342V59.6524H42.2856V49.912C42.2871 40.5746 42.2886 30.9203 42.2765 21.4245C42.275 19.8987 42.8062 18.9389 43.9502 18.4001C44.3381 18.2175 44.8648 18.1178 45.5167 18.1028C46.2532 18.0862 47.0425 18.0786 48.0009 18.0786C48.6529 18.0786 49.3048 18.0816 49.9583 18.0862L50.811 18.0907C52.8937 18.0997 54.0452 19.2588 54.0527 21.3551C54.0603 23.4015 54.0588 25.4812 54.0573 27.493C54.0573 28.3577 54.0558 29.224 54.0558 30.0888V59.6916H55.7612C56.0434 59.6916 56.3196 59.6916 56.5972 59.6916C57.5646 59.6931 57.7789 60.0583 57.8544 60.333C57.9691 60.745 57.9012 61.0559 57.2281 61.4981H0.803874V61.4966ZM45.7341 19.8942C44.3683 19.8942 44.0921 20.1749 44.0921 21.5633V59.6614H52.1844L52.2055 59.3837C52.21 59.3249 52.2161 59.2705 52.2206 59.2162C52.2327 59.097 52.2432 58.9853 52.2432 58.8676C52.2447 46.3594 52.2462 33.8512 52.2432 21.343C52.2432 20.2654 51.878 19.9002 50.7944 19.8972C50.0413 19.8942 49.2882 19.8942 48.5351 19.8942H45.7341ZM26.6473 37.2725C25.3162 37.2725 24.9721 37.6151 24.9721 38.9342V59.6569H33.1006L33.1263 59.3837C33.1308 59.343 33.1338 59.3083 33.1383 59.2766C33.1459 59.2056 33.1534 59.1453 33.1534 59.0774V56.8951C33.1549 50.8009 33.1549 44.7053 33.1519 38.6112C33.1519 37.7027 32.7112 37.2786 31.7665 37.2756C31.027 37.2725 30.286 37.2725 29.5465 37.2725H26.6473ZM10.096 47.3902C9.17688 47.3902 8.25778 47.3917 7.33868 47.3932C6.28979 47.3947 5.90042 47.7886 5.89891 48.845C5.89589 50.7587 5.8974 52.6723 5.8974 54.586V59.6433H13.9444L13.9988 59.4109C14.0048 59.3837 14.0108 59.3626 14.0169 59.3445C14.0304 59.2977 14.0455 59.2434 14.0455 59.1785L14.0486 56.8438C14.0531 54.1755 14.0561 51.4152 14.0486 48.7017C14.0455 47.8158 13.6184 47.4007 12.7008 47.3977C11.83 47.3917 10.9623 47.3902 10.096 47.3902Z" fill="white"/>
<path d="M11.3237 33.3275C11.0943 33.3275 10.8709 33.2415 10.7125 33.089C10.4212 32.8113 10.3563 32.3676 10.5585 32.0311C10.6808 31.8258 10.8543 31.6417 11.0083 31.4878C18.0049 24.4851 25.003 17.487 32.0012 10.4874C32.4222 10.0663 32.7256 9.87763 32.9852 9.87763C33.2432 9.87763 33.5451 10.0633 33.9616 10.4798C34.9501 11.4683 35.9372 12.4584 36.903 13.4257L38.2387 14.7644L50.7952 2.20791H46.2631C45.6896 2.20791 45.27 2.08869 45.0497 1.86231C44.9108 1.72044 44.8459 1.5318 44.852 1.28881C44.8565 1.06998 44.8716 0.402918 46.2495 0.401408L49.9893 0.399902C50.931 0.399902 51.8727 0.399901 52.8145 0.402919C53.7396 0.405937 54.0399 0.689664 54.0475 1.57556C54.0565 2.67727 54.055 3.79709 54.0535 4.88069C54.052 5.92958 54.0505 7.01319 54.058 8.08019C54.0611 8.43334 53.9599 8.7231 53.7668 8.91779C53.6038 9.08229 53.3834 9.17133 53.1465 9.17133C53.0031 9.17133 52.8643 9.13662 52.745 9.07324C52.3934 8.88459 52.2485 8.57671 52.2485 8.01378C52.247 7.29239 52.247 6.5725 52.247 5.8511V3.53751L51.7369 4.02347C51.6448 4.11101 51.5679 4.18496 51.4984 4.24985C51.3702 4.3721 51.2706 4.46416 51.1755 4.56075L39.3328 16.3989C38.8982 16.8335 38.5888 17.0282 38.3322 17.0282C38.0757 17.0282 37.7693 16.835 37.3377 16.4034C36.3612 15.4269 35.3848 14.449 34.3419 13.4031L32.7995 11.8577L32.6003 12.1912C32.552 12.2742 32.5083 12.3572 32.466 12.4387C32.3936 12.5791 32.3317 12.7013 32.2532 12.7798C25.9734 19.0716 19.7616 25.282 12.3666 32.6725C12.1915 32.8476 11.9923 33.0468 11.781 33.1886C11.6497 33.2807 11.4912 33.3275 11.3237 33.3275Z" fill="white"/>
<path d="M7.26324 37.5321C6.77275 37.5321 6.3864 37.1488 6.38187 36.6598C6.37735 36.1753 6.77728 35.7633 7.25419 35.7588C7.72808 35.7588 8.14159 36.1723 8.14763 36.6447C8.15065 36.8786 8.06161 37.099 7.8956 37.268C7.72958 37.437 7.50773 37.5321 7.27079 37.5336L7.26324 37.5321Z" fill="white"/>
</svg>
